<svg xmlns="http://www.w3.org/2000/svg" viewBox="0 0 240 240">
  <style>
    .ink { display: none; }
    @media (prefers-color-scheme: light) { .ink { display: inline; } }
  </style>
  <g class="ink" fill="none" stroke="#14110d">
    <path d="M 189.4 180.4 A 92 92 0 0 1 58.6 188.5" stroke-width="43"/>
    <path d="M 51.5 181.4 A 92 92 0 1 1 189.4 59.6" stroke-width="43"/>
    <path d="M 153.2 160.0 A 52 52 0 0 1 87.0 160.2" stroke-width="23"/>
    <path d="M 79.9 153.1 A 52 52 0 0 1 153.2 80.0" stroke-width="23"/>
    <path d="M 126.5 128.3 A 10.5 10.5 0 1 1 126.5 111.7" stroke-width="16"/>
  </g>
  <g fill="none" stroke="#f59e0b">
    <path d="M 188.4 181.5 A 92 92 0 0 1 59.7 189.5" stroke-width="40"/>
    <path d="M 50.5 180.3 A 92 92 0 0 1 188.4 58.5" stroke-width="40"/>
    <path d="M 152.0 161.0 A 52 52 0 0 1 88.1 161.1" stroke-width="20"/>
    <path d="M 78.9 151.9 A 52 52 0 0 1 152.0 79.0" stroke-width="20"/>
    <path d="M 125.3 129.1 A 10.5 10.5 0 1 1 125.3 110.9" stroke-width="13"/>
  </g>
  <line x1="66.3" y1="173.7" x2="56.4" y2="183.6" stroke="#88000f" stroke-width="7" stroke-linecap="round"/>
  <line x1="50.7" y1="189.3" x2="36.6" y2="203.4" stroke="#eab308" stroke-width="7" stroke-linecap="round"/>
</svg>
